# xmcd
#
# Track frame offsets:
#	150
#	67990
#	121645
#	185362
#	235440
#	243797
#	252352
#	260365
#
# Disc length: 3580 seconds
#
# Revision: 0
# Processed by: cddbd v1.4PL0 Copyright (c) Steve Scherf et al.
# Submitted via: dBpowerAMP V4.0
#
DISCID=620dfa08
DTITLE=The Beatles - the long and winding Road  2/12
DYEAR=1900
DGENRE=
TTITLE0=Spur 1
TTITLE1=Spur 2
TTITLE2=Spur 3
TTITLE3=Spur 4
TTITLE4=Spur 5
TTITLE5=Spur 6
TTITLE6=Spur 7
TTITLE7=Spur 8
EXTD=Special Edition
EXTT0=
EXTT1=
EXTT2=
EXTT3=
EXTT4=
EXTT5=
EXTT6=
EXTT7=
PLAYORDER=
